<mxfile host="app.diagrams.net" modified="2024-04-08T06:16:16.143Z" agent="Mozilla/5.0 (Windows NT 10.0; Win64; x64) AppleWebKit/537.36 (KHTML, like Gecko) Chrome/123.0.0.0 Safari/537.36" etag="BD5Sh-xs4eRio3yXwJ2x" version="24.1.0" type="github">
  <diagram id="vwqoIQEuep60xFj0psgh" name="Page-1">
    <mxGraphModel dx="725" dy="721" grid="1" gridSize="10" guides="1" tooltips="1" connect="1" arrows="1" fold="1" page="1" pageScale="1" pageWidth="850" pageHeight="1100" math="0" shadow="0">
      <root>
        <mxCell id="0" />
        <mxCell id="1" parent="0" />
        <mxCell id="k_yiJJyBY-r9MNNjsbCX-8" value="" style="rounded=0;whiteSpace=wrap;html=1;" parent="1" vertex="1">
          <mxGeometry x="130" y="50" width="680" height="490" as="geometry" />
        </mxCell>
        <mxCell id="k_yiJJyBY-r9MNNjsbCX-9" value="" style="rounded=0;whiteSpace=wrap;html=1;" parent="1" vertex="1">
          <mxGeometry x="192" y="251" width="158" height="260" as="geometry" />
        </mxCell>
        <mxCell id="ZuhqsGT0pxYqbd2Q_ung-1" value="172.16.0.2 -- ProxMox" style="text;html=1;strokeColor=none;fillColor=none;align=center;verticalAlign=middle;whiteSpace=wrap;rounded=0;" parent="1" vertex="1">
          <mxGeometry x="350" y="70" width="150" height="30" as="geometry" />
        </mxCell>
        <mxCell id="k_yiJJyBY-r9MNNjsbCX-4" value="" style="rounded=0;whiteSpace=wrap;html=1;" parent="1" vertex="1">
          <mxGeometry x="365" y="251" width="155" height="260" as="geometry" />
        </mxCell>
        <mxCell id="ZwRig5HauhkWjJEakqdL-1" value="172.16.0.4 - Radarr" style="text;html=1;strokeColor=none;fillColor=none;align=center;verticalAlign=middle;whiteSpace=wrap;rounded=0;" parent="1" vertex="1">
          <mxGeometry x="250" y="320" width="60" height="30" as="geometry" />
        </mxCell>
        <mxCell id="ZwRig5HauhkWjJEakqdL-2" value="172.16.0.5 - Sonarr" style="text;html=1;strokeColor=none;fillColor=none;align=center;verticalAlign=middle;whiteSpace=wrap;rounded=0;" parent="1" vertex="1">
          <mxGeometry x="250" y="360" width="60" height="30" as="geometry" />
        </mxCell>
        <mxCell id="ZwRig5HauhkWjJEakqdL-3" value="172.16.0.6 - SABnzb" style="text;html=1;strokeColor=none;fillColor=none;align=center;verticalAlign=middle;whiteSpace=wrap;rounded=0;" parent="1" vertex="1">
          <mxGeometry x="250" y="405" width="60" height="30" as="geometry" />
        </mxCell>
        <mxCell id="k_yiJJyBY-r9MNNjsbCX-5" value="" style="rounded=0;whiteSpace=wrap;html=1;" parent="1" vertex="1">
          <mxGeometry x="530" y="250" width="158" height="260" as="geometry" />
        </mxCell>
        <mxCell id="k_yiJJyBY-r9MNNjsbCX-1" value="172.16.0.3 -- pim-host-a" style="text;html=1;strokeColor=none;fillColor=none;align=center;verticalAlign=middle;whiteSpace=wrap;rounded=0;" parent="1" vertex="1">
          <mxGeometry x="220" y="260" width="120" height="30" as="geometry" />
        </mxCell>
        <mxCell id="ZwRig5HauhkWjJEakqdL-4" value="172.16.0.10 -- pim-omv" style="text;html=1;strokeColor=none;fillColor=none;align=center;verticalAlign=middle;whiteSpace=wrap;rounded=0;" parent="1" vertex="1">
          <mxGeometry x="380" y="260" width="130" height="30" as="geometry" />
        </mxCell>
      </root>
    </mxGraphModel>
  </diagram>
</mxfile>
